<?xml version="1.0" encoding="utf-8" standalone="no"?>
<!DOCTYPE svg PUBLIC "-//W3C//DTD SVG 1.1//EN"
  "http://www.w3.org/Graphics/SVG/1.1/DTD/svg11.dtd">
<svg xmlns:xlink="http://www.w3.org/1999/xlink" width="720pt" height="352.8pt" viewBox="0 0 720 352.8" xmlns="http://www.w3.org/2000/svg" version="1.1">
 <metadata>
  <rdf:RDF xmlns:dc="http://purl.org/dc/elements/1.1/" xmlns:cc="http://creativecommons.org/ns#" xmlns:rdf="http://www.w3.org/1999/02/22-rdf-syntax-ns#">
   <cc:Work>
    <dc:type rdf:resource="http://purl.org/dc/dcmitype/StillImage"/>
    <dc:date>2026-10-01T23:08:12.059084</dc:date>
    <dc:format>image/svg+xml</dc:format>
    <dc:creator>
     <cc:Agent>
      <dc:title>Matplotlib v3.9.2, https://matplotlib.org/</dc:title>
     </cc:Agent>
    </dc:creator>
   </cc:Work>
  </rdf:RDF>
 </metadata>
 <defs>
  <style type="text/css">*{stroke-linejoin: round; stroke-linecap: butt}</style>
 </defs>
 <g id="figure_1">
  <g id="patch_1">
   <path d="M 0 352.8 
L 720 352.8 
L 720 0 
L 0 0 
z
" style="fill: #ffffff"/>
  </g>
  <g id="axes_1">
   <g id="patch_2">
    <path d="M 88.27 232.00992 
L 702 232.00992 
L 702 84.024 
L 88.27 84.024 
z
" style="fill: #ffffff"/>
   </g>
   <g id="matplotlib.axis_1">
    <g id="xtick_1">
     <g id="line2d_1">
      <path d="M 88.27 232.00992 
L 88.27 84.024 
" clip-path="url(#p2b02ad738f)" style="fill: none; stroke: #e2e8f0; stroke-width: 0.8; stroke-linecap: square"/>
     </g>
     <g id="line2d_2">
      <defs>
       <path id="m9d122a574e" d="M 0 0 
L 0 3.5 
" style="stroke: #475569; stroke-width: 0.8"/>
      </defs>
      <g>
       <use xlink:href="#m9d122a574e" x="88.27" y="232.00992" style="fill: #475569; stroke: #475569; stroke-width: 0.8"/>
      </g>
     </g>
     <g id="text_1">
      <text style="fill: #475569; font: 10px 'DejaVu Sans'; text-anchor: middle" x="88.27" y="246.608358" transform="rotate(-0 88.27 246.608358)">0</text>
     </g>
    </g>
    <g id="xtick_2">
     <g id="line2d_3">
      <path d="M 206.093309 232.00992 
L 206.093309 84.024 
" clip-path="url(#p2b02ad738f)" style="fill: none; stroke: #e2e8f0; stroke-width: 0.8; stroke-linecap: square"/>
     </g>
     <g id="line2d_4">
      <g>
       <use xlink:href="#m9d122a574e" x="206.093309" y="232.00992" style="fill: #475569; stroke: #475569; stroke-width: 0.8"/>
      </g>
     </g>
     <g id="text_2">
      <text style="fill: #475569; font: 10px 'DejaVu Sans'; text-anchor: middle" x="206.093309" y="246.608358" transform="rotate(-0 206.093309 246.608358)">1</text>
     </g>
    </g>
    <g id="xtick_3">
     <g id="line2d_5">
      <path d="M 323.916618 232.00992 
L 323.916618 84.024 
" clip-path="url(#p2b02ad738f)" style="fill: none; stroke: #e2e8f0; stroke-width: 0.8; stroke-linecap: square"/>
     </g>
     <g id="line2d_6">
      <g>
       <use xlink:href="#m9d122a574e" x="323.916618" y="232.00992" style="fill: #475569; stroke: #475569; stroke-width: 0.8"/>
      </g>
     </g>
     <g id="text_3">
      <text style="fill: #475569; font: 10px 'DejaVu Sans'; text-anchor: middle" x="323.916618" y="246.608358" transform="rotate(-0 323.916618 246.608358)">2</text>
     </g>
    </g>
    <g id="xtick_4">
     <g id="line2d_7">
      <path d="M 441.739927 232.00992 
L 441.739927 84.024 
" clip-path="url(#p2b02ad738f)" style="fill: none; stroke: #e2e8f0; stroke-width: 0.8; stroke-linecap: square"/>
     </g>
     <g id="line2d_8">
      <g>
       <use xlink:href="#m9d122a574e" x="441.739927" y="232.00992" style="fill: #475569; stroke: #475569; stroke-width: 0.8"/>
      </g>
     </g>
     <g id="text_4">
      <text style="fill: #475569; font: 10px 'DejaVu Sans'; text-anchor: middle" x="441.739927" y="246.608358" transform="rotate(-0 441.739927 246.608358)">3</text>
     </g>
    </g>
    <g id="xtick_5">
     <g id="line2d_9">
      <path d="M 559.563237 232.00992 
L 559.563237 84.024 
" clip-path="url(#p2b02ad738f)" style="fill: none; stroke: #e2e8f0; stroke-width: 0.8; stroke-linecap: square"/>
     </g>
     <g id="line2d_10">
      <g>
       <use xlink:href="#m9d122a574e" x="559.563237" y="232.00992" style="fill: #475569; stroke: #475569; stroke-width: 0.8"/>
      </g>
     </g>
     <g id="text_5">
      <text style="fill: #475569; font: 10px 'DejaVu Sans'; text-anchor: middle" x="559.563237" y="246.608358" transform="rotate(-0 559.563237 246.608358)">4</text>
     </g>
    </g>
    <g id="xtick_6">
     <g id="line2d_11">
      <path d="M 677.386546 232.00992 
L 677.386546 84.024 
" clip-path="url(#p2b02ad738f)" style="fill: none; stroke: #e2e8f0; stroke-width: 0.8; stroke-linecap: square"/>
     </g>
     <g id="line2d_12">
      <g>
       <use xlink:href="#m9d122a574e" x="677.386546" y="232.00992" style="fill: #475569; stroke: #475569; stroke-width: 0.8"/>
      </g>
     </g>
     <g id="text_6">
      <text style="fill: #475569; font: 10px 'DejaVu Sans'; text-anchor: middle" x="677.386546" y="246.608358" transform="rotate(-0 677.386546 246.608358)">5</text>
     </g>
    </g>
    <g id="text_7">
     <text style="fill: #334155; font: 11px 'DejaVu Sans'; text-anchor: middle" x="395.135" y="261.046326" transform="rotate(-0 395.135 261.046326)">Sum of GPU kernel durations per sample (ms)</text>
    </g>
   </g>
   <g id="matplotlib.axis_2">
    <g id="ytick_1">
     <g id="line2d_13">
      <defs>
       <path id="mc686f91df1" d="M 0 0 
L -3.5 0 
" style="stroke: #475569; stroke-width: 0.8"/>
      </defs>
      <g>
       <use xlink:href="#mc686f91df1" x="88.27" y="202.861178" style="fill: #475569; stroke: #475569; stroke-width: 0.8"/>
      </g>
     </g>
     <g id="text_8">
      <text style="fill: #475569; font: 10px 'DejaVu Sans'; text-anchor: end" x="81.27" y="206.660397" transform="rotate(-0 81.27 206.660397)">Sorting off</text>
     </g>
    </g>
    <g id="ytick_2">
     <g id="line2d_14">
      <g>
       <use xlink:href="#mc686f91df1" x="88.27" y="113.172742" style="fill: #475569; stroke: #475569; stroke-width: 0.8"/>
      </g>
     </g>
     <g id="text_9">
      <text style="fill: #475569; font: 10px 'DejaVu Sans'; text-anchor: end" x="81.27" y="116.971961" transform="rotate(-0 81.27 116.971961)">Sorting on</text>
     </g>
    </g>
   </g>
   <g id="patch_3">
    <path d="M 88.27 225.283287 
L 95.485827 225.283287 
L 95.485827 180.439069 
L 88.27 180.439069 
z
" clip-path="url(#p2b02ad738f)" style="fill: #64748b"/>
   </g>
   <g id="patch_4">
    <path d="M 95.485827 225.283287 
L 267.880334 225.283287 
L 267.880334 180.439069 
L 95.485827 180.439069 
z
" clip-path="url(#p2b02ad738f)" style="fill: #2563eb"/>
   </g>
   <g id="patch_5">
    <path d="M 267.880334 225.283287 
L 267.880334 225.283287 
L 267.880334 180.439069 
L 267.880334 180.439069 
z
" clip-path="url(#p2b02ad738f)" style="fill: #7c3aed"/>
   </g>
   <g id="patch_6">
    <path d="M 267.880334 225.283287 
L 399.41067 225.283287 
L 399.41067 180.439069 
L 267.880334 180.439069 
z
" clip-path="url(#p2b02ad738f)" style="fill: #0d9488"/>
   </g>
   <g id="patch_7">
    <path d="M 399.41067 225.283287 
L 402.517003 225.283287 
L 402.517003 180.439069 
L 399.41067 180.439069 
z
" clip-path="url(#p2b02ad738f)" style="fill: #db2777"/>
   </g>
   <g id="patch_8">
    <path d="M 402.517003 225.283287 
L 411.714447 225.283287 
L 411.714447 180.439069 
L 402.517003 180.439069 
z
" clip-path="url(#p2b02ad738f)" style="fill: #d97706"/>
   </g>
   <g id="patch_9">
    <path d="M 88.27 135.594851 
L 95.146699 135.594851 
L 95.146699 90.750633 
L 88.27 90.750633 
z
" clip-path="url(#p2b02ad738f)" style="fill: #64748b"/>
   </g>
   <g id="patch_10">
    <path d="M 95.146699 135.594851 
L 256.765616 135.594851 
L 256.765616 90.750633 
L 95.146699 90.750633 
z
" clip-path="url(#p2b02ad738f)" style="fill: #2563eb"/>
   </g>
   <g id="patch_11">
    <path d="M 256.765616 135.594851 
L 258.616136 135.594851 
L 258.616136 90.750633 
L 256.765616 90.750633 
z
" clip-path="url(#p2b02ad738f)" style="fill: #7c3aed"/>
   </g>
   <g id="patch_12">
    <path d="M 258.616136 135.594851 
L 372.282701 135.594851 
L 372.282701 90.750633 
L 258.616136 90.750633 
z
" clip-path="url(#p2b02ad738f)" style="fill: #0d9488"/>
   </g>
   <g id="patch_13">
    <path d="M 372.282701 135.594851 
L 375.63172 135.594851 
L 375.63172 90.750633 
L 372.282701 90.750633 
z
" clip-path="url(#p2b02ad738f)" style="fill: #db2777"/>
   </g>
   <g id="patch_14">
    <path d="M 375.63172 135.594851 
L 599.711667 135.594851 
L 599.711667 90.750633 
L 375.63172 90.750633 
z
" clip-path="url(#p2b02ad738f)" style="fill: #d97706"/>
   </g>
   <g id="patch_15">
    <path d="M 88.27 232.00992 
L 88.27 84.024 
" style="fill: none; stroke: #cbd5e1; stroke-width: 0.8; stroke-linejoin: miter; stroke-linecap: square"/>
   </g>
   <g id="patch_16">
    <path d="M 88.27 232.00992 
L 702 232.00992 
" style="fill: none; stroke: #cbd5e1; stroke-width: 0.8; stroke-linejoin: miter; stroke-linecap: square"/>
   </g>
   <g id="text_10">
    <text style="fill: #172033; font: 700 10px 'DejaVu Sans'; text-anchor: start" x="418.783846" y="205.620553" transform="rotate(-0 418.783846 205.620553)">2.75 ms</text>
   </g>
   <g id="text_11">
    <text style="fill: #172033; font: 700 10px 'DejaVu Sans'; text-anchor: start" x="606.781065" y="115.932117" transform="rotate(-0 606.781065 115.932117)">4.34 ms</text>
   </g>
   <g id="legend_1">
    <g id="patch_17">
     <path d="M 246.138125 275.245823 
L 266.138125 275.245823 
L 266.138125 268.245823 
L 246.138125 268.245823 
z
" style="fill: #64748b"/>
    </g>
    <g id="text_12">
     <text style="fill: #172033; font: 10px 'DejaVu Sans'; text-anchor: start" x="274.138125" y="275.245823" transform="rotate(-0 274.138125 275.245823)">Camera</text>
    </g>
    <g id="patch_18">
     <path d="M 246.138125 289.923948 
L 266.138125 289.923948 
L 266.138125 282.923948 
L 246.138125 282.923948 
z
" style="fill: #2563eb"/>
    </g>
    <g id="text_13">
     <text style="fill: #172033; font: 10px 'DejaVu Sans'; text-anchor: start" x="274.138125" y="289.923948" transform="rotate(-0 274.138125 289.923948)">Intersections</text>
    </g>
    <g id="patch_19">
     <path d="M 358.835 275.245823 
L 378.835 275.245823 
L 378.835 268.245823 
L 358.835 268.245823 
z
" style="fill: #7c3aed"/>
    </g>
    <g id="text_14">
     <text style="fill: #172033; font: 10px 'DejaVu Sans'; text-anchor: start" x="386.835" y="275.245823" transform="rotate(-0 386.835 275.245823)">Sort keys</text>
    </g>
    <g id="patch_20">
     <path d="M 358.835 289.923948 
L 378.835 289.923948 
L 378.835 282.923948 
L 358.835 282.923948 
z
" style="fill: #0d9488"/>
    </g>
    <g id="text_15">
     <text style="fill: #172033; font: 10px 'DejaVu Sans'; text-anchor: start" x="386.835" y="289.923948" transform="rotate(-0 386.835 289.923948)">Shading</text>
    </g>
    <g id="patch_21">
     <path d="M 453.220937 275.245823 
L 473.220937 275.245823 
L 473.220937 268.245823 
L 453.220937 268.245823 
z
" style="fill: #db2777"/>
    </g>
    <g id="text_16">
     <text style="fill: #172033; font: 10px 'DejaVu Sans'; text-anchor: start" x="481.220937" y="275.245823" transform="rotate(-0 481.220937 275.245823)">Gather</text>
    </g>
    <g id="patch_22">
     <path d="M 453.220937 289.923948 
L 473.220937 289.923948 
L 473.220937 282.923948 
L 453.220937 282.923948 
z
" style="fill: #d97706"/>
    </g>
    <g id="text_17">
     <text style="fill: #172033; font: 10px 'DejaVu Sans'; text-anchor: start" x="481.220937" y="289.923948" transform="rotate(-0 481.220937 289.923948)">Thrust / CUB</text>
    </g>
   </g>
  </g>
  <g id="text_18">
   <text style="fill: #172033; font: 700 16px 'DejaVu Sans'; text-anchor: start" x="50.4" y="17.4495" transform="rotate(-0 50.4 17.4495)">Sorting adds more GPU work than it removes</text>
  </g>
  <g id="text_19">
   <text style="fill: #64748b; font: 10px 'DejaVu Sans'; text-anchor: start" x="50.4" y="35.28" transform="rotate(-0 50.4 35.28)">Nsight Systems: summed GPU kernel durations, 36 samples per capture, 256 × 192</text>
  </g>
  <g id="text_20">
   <text style="fill: #64748b; font: 9px 'DejaVu Sans'; text-anchor: start" x="50.4" y="343.98" transform="rotate(-0 50.4 343.98)">GPU-only sums exclude CPU launch/synchronization gaps; separate trace, not the five-run elapsed-time benchmark.</text>
  </g>
 </g>
 <defs>
  <clipPath id="p2b02ad738f">
   <rect x="88.27" y="84.024" width="613.73" height="147.98592"/>
  </clipPath>
 </defs>
</svg>
